<?xml version="1.0" encoding="utf-8"?>
<!-- Generator: Adobe Illustrator 21.0.2, SVG Export Plug-In . SVG Version: 6.00 Build 0)  -->
<svg version="1.1" id="Layer_1" xmlns="http://www.w3.org/2000/svg" xmlns:xlink="http://www.w3.org/1999/xlink" x="0px" y="0px"
	 width="1000px" height="1000px" viewBox="0 0 1000 1000" style="enable-background:new 0 0 1000 1000;" xml:space="preserve">
<path d="M906.3,0H93.8C42.2,0,0,42.2,0,93.8v812.5c0,51.6,42.2,93.8,93.8,93.8H500V562.5H375v-125h125V375
	c0-103.3,84.2-187.5,187.5-187.5h125v125h-125c-34.4,0-62.5,28.1-62.5,62.5v62.5h187.5l-31.3,125H625V1000h281.3
	c51.6,0,93.8-42.2,93.8-93.8V93.8C1000,42.2,957.8,0,906.3,0z"/>
</svg>
