<?xml version="1.0" encoding="utf-8"?>
<!-- Generator: Adobe Illustrator 21.0.2, SVG Export Plug-In . SVG Version: 6.00 Build 0)  -->
<svg version="1.1" id="Layer_1" xmlns="http://www.w3.org/2000/svg" xmlns:xlink="http://www.w3.org/1999/xlink" x="0px" y="0px"
	 viewBox="0 0 1231 1000" style="enable-background:new 0 0 1231 1000;" xml:space="preserve">
<path d="M1231,118.3c-45.2,20.2-94,33.7-145,39.7c52.2-31.3,92.1-80.8,111-139.6c-48.8,28.8-102.9,50-160.3,61.3
	C990.5,30.5,924.9,0,852.3,0C712.9,0,599.9,113,599.9,252.4c0,19.7,2.2,38.9,6.5,57.5C396.6,299.3,210.5,198.8,86,46
	c-21.7,37.3-34.1,80.8-34.1,126.9c0,87.5,44.5,164.9,112.3,210.1c-41.3-1.2-80.3-12.7-114.4-31.5c0,1,0,2.2,0,3.1
	c0,122.3,87,224.5,202.6,247.6c-21.2,5.8-43.5,8.9-66.6,8.9c-16.3,0-32-1.7-47.6-4.6C170.5,706.7,263.7,779.8,374,782
	c-86.5,67.8-195.2,108.2-313.7,108.2c-20.4,0-40.4-1.2-60.3-3.6C112,958.4,244.7,1000,387.3,1000c464.4,0,718.5-384.8,718.5-718.5
	c0-11-0.2-21.9-0.7-32.7C1154.3,213.5,1197.1,169,1231,118.3L1231,118.3z"/>
</svg>
