<?xml version="1.0" encoding="utf-8"?>
<!-- Generator: Adobe Illustrator 21.0.2, SVG Export Plug-In . SVG Version: 6.00 Build 0)  -->
<svg version="1.1" id="Layer_1" xmlns="http://www.w3.org/2000/svg" xmlns:xlink="http://www.w3.org/1999/xlink" x="0px" y="0px"
	 viewBox="0 0 1421.8 1000" style="enable-background:new 0 0 1421.8 1000;" xml:space="preserve">
<path d="M1407.4,215.8c0,0-13.9-98-56.7-141.1c-54.2-56.7-114.7-56.9-142.5-60.3C1009.5,0,710.9,0,710.9,0h-0.5
	c0,0-298.5,0-497.4,14.4c-27.8,3.3-88.3,3.6-142.5,60.3c-42.8,43.1-56.4,141.1-56.4,141.1S0,330.8,0,446v107.7
	c0,114.9,14.2,230.2,14.2,230.2s13.9,98,56.4,141.1c54.2,56.7,125.3,54.7,156.9,60.8c113.9,10.8,483.5,14.2,483.5,14.2
	s298.8-0.5,497.6-14.7c27.8-3.3,88.3-3.6,142.5-60.3c42.7-43.1,56.7-141.1,56.7-141.1s14.2-114.9,14.2-230.2V446
	C1421.6,331,1407.4,215.8,1407.4,215.8L1407.4,215.8z M563.8,684.5V284.9l384.1,200.5C947.8,485.4,563.8,684.5,563.8,684.5z"/>
</svg>
